<?xml version="1.0" encoding="UTF-8"?>
<svg width="120px" height="120px" viewBox="0 0 120 120" version="1.1" xmlns="http://www.w3.org/2000/svg" xmlns:xlink="http://www.w3.org/1999/xlink">
    <title>novant-icon-alt</title>
    <defs>
        <linearGradient x1="50%" y1="100%" x2="50%" y2="0%" id="linearGradient-1">
            <stop stop-color="#7343E6" offset="0%"></stop>
            <stop stop-color="#4CA1E2" offset="100%"></stop>
        </linearGradient>
    </defs>
    <g id="novant-icon" stroke="none" stroke-width="1" fill="none" fill-rule="evenodd">
        <rect id="Rectangle" fill="url(#linearGradient-1)" fill-rule="nonzero" x="0" y="0" width="120" height="120" rx="24"></rect>
        <path d="M31.4281453,39.0629804 C31.4281453,35.6756983 33.5397922,32.6510182 36.7092509,31.4972845 C39.8787095,30.3435509 43.4289407,31.3074928 45.5883084,33.9086378 L75.0648705,69.4166643 C75.3820152,69.7982455 75.9029676,69.9400898 76.3682458,69.7702762 C76.8335239,69.6004626 77.1437093,69.1569494 77.1437093,68.6594954 L77.1437093,57.6286028 C77.1437093,55.5778537 76.428891,53.6020224 75.121539,52.0267514 C63.544266,38.0800593 58.8775662,32.4582298 54.364965,27.0221964 C49.1226326,20.7071278 40.5060397,18.3676955 32.8120495,21.170619 C25.1180594,23.9735426 20,31.3184808 20,39.5414553 L20,96.2262382 C20,97.088292 20.6959288,97.7875245 21.5539096,97.7875245 L24.4489735,97.7875245 C28.303425,97.7875245 31.4281453,94.6479705 31.4281453,90.7752212 L31.4281453,39.0629804 Z M88.5718547,80.9370196 C88.5718547,84.3243017 86.4602078,87.3489818 83.2907491,88.5027155 C80.1212905,89.6564491 76.5710593,88.6925072 74.4116916,86.0913622 L44.9351295,50.5833357 C44.6179848,50.2017545 44.0970324,50.0599102 43.6317542,50.2297238 C43.1664761,50.3995374 42.8562907,50.8430506 42.8562907,51.3405046 L42.8562907,62.3713972 C42.8562907,64.4221463 43.571109,66.3979776 44.878461,67.9732486 C56.455734,81.9199407 61.1224338,87.5417702 65.635035,92.9778036 C70.8773674,99.2928722 79.4939603,101.632304 87.1879505,98.829381 C94.8819406,96.0264574 100,88.6815192 100,80.4585447 L100,23.7737618 C100,22.911708 99.3040712,22.2124755 98.4460904,22.2124755 L95.5510265,22.2124755 C91.696575,22.2124755 88.5718547,25.3520295 88.5718547,29.2247788 L88.5718547,80.9370196 Z" id="Shape" fill="#FFFFFF" fill-rule="nonzero"></path>
    </g>
</svg>