<?xml version="1.0" encoding="UTF-8"?>
<svg width="512px" height="512px" viewBox="0 0 512 512" version="1.1" xmlns="http://www.w3.org/2000/svg" xmlns:xlink="http://www.w3.org/1999/xlink">
    <title>novant-icon-yellow-bg-padded</title>
    <defs>
        <path d="M72,0 L440,0 A72,72 0 0 1 512,72 L512,440 A72,72 0 0 1 440,512 L72,512 A72,72 0 0 1 0,440 L0,72 A72,72 0 0 1 72,0 Z" id="path-1"></path>
    </defs>
    <g id="novant-icon-yellow-bg-padded" stroke="none" fill="none" xlink:href="#path-1" fill-rule="evenodd">
        <use fill="#FFE020" xlink:href="#path-1"></use>
        <g id="novant-icon-charcoal" transform="translate(128, 128)" fill="#222222">
            <path d="M219.221378,193.599859 C219.221378,202.955224 214.861531,212.152011 206.837852,216.962159 C195.745691,223.611393 181.900313,220.977245 173.950782,211.400518 L73.2456321,93.409144 L73.2456321,149.469626 C105.334393,187.490226 133.025962,217.916882 145.892262,233.417059 C162.652414,253.60588 190.198934,261.083461 214.79523,252.122379 C239.393421,243.16319 255.755772,219.681821 255.755772,193.39311 L255.755772,7.38773171 L219.220837,7.38773171 L219.221378,193.599859 Z" id="Fill-1"></path>
            <path d="M81.8049894,44.5753038 L182.421108,163.028615 L182.421108,107.180564 C148.11819,65.9775533 119.589345,34.6557097 107.31271,19.4453588 C100.552524,11.0698831 91.4006596,4.82440316 80.9539112,2.23328266 C35.7268837,-8.98281882 0,23.7391769 0,62.5827118 L0,248.616775 L36.5346638,248.616775 L36.5343932,61.4864581 C36.5343932,53.5125723 39.9235518,45.7511178 46.2231543,40.8627626 C57.6755011,31.9752869 73.1965159,34.2051389 81.8049894,44.5753038" id="Fill-3"></path>
        </g>
    </g>
</svg>